<svg width="26" height="26" viewBox="0 0 26 26" fill="none" xmlns="http://www.w3.org/2000/svg">
<path d="M9.92773 20.1729C9.6569 20.1729 9.45378 20.0501 9.31836 19.8047C9.26758 19.7116 9.17871 19.5508 9.05176 19.3223C8.9248 19.0938 8.79362 18.8568 8.6582 18.6113C8.52279 18.3659 8.40006 18.1331 8.29004 17.9131C8.18001 17.693 8.125 17.5449 8.125 17.4688C8.125 17.3333 8.15462 17.1895 8.21387 17.0371C8.27311 16.8848 8.34928 16.7324 8.44238 16.5801C8.53548 16.4277 8.62435 16.2839 8.70898 16.1484C8.79362 16.013 8.86979 15.8945 8.9375 15.793L8.125 15.1455H10.626L11.2227 17.6084L10.2451 16.834L9.54688 18.2432H11.8701V20.1729H9.92773ZM12.8604 11.9971L11.7939 14.0918L10.1816 13.2793L10.9434 11.7686C11.0618 11.5146 11.265 11.3877 11.5527 11.3877L14.3584 11.375C14.6292 11.375 14.8324 11.502 14.9678 11.7559L15.6533 13.0381L16.3896 12.4795L16.0088 15.1074L13.2412 14.8535L14.0283 14.2695L12.8604 11.9971ZM14.4092 21.125L12.835 19.0176L14.4092 17.0879V18.3955H16.4785L15.6279 16.834L17.1768 15.9199C17.2106 15.9961 17.2656 16.1019 17.3418 16.2373C17.418 16.3727 17.4984 16.5208 17.583 16.6816C17.6676 16.8424 17.7354 16.9906 17.7861 17.126C17.8369 17.2614 17.8665 17.3757 17.875 17.4688C17.875 17.5703 17.8496 17.6719 17.7988 17.7734L16.7197 19.9062C16.6605 20.0247 16.5758 20.1136 16.4658 20.1729C16.3558 20.2321 16.2373 20.266 16.1104 20.2744H14.4092V21.125ZM22.0137 8.125H23.6895L20.249 23.499C19.1488 24.32 18.0146 24.9421 16.8467 25.3652C15.6787 25.7884 14.4007 26 13.0127 26C11.6416 26 10.3678 25.7884 9.19141 25.3652C8.01497 24.9421 6.88086 24.32 5.78906 23.499L1.73926 5.59863L1.66309 5.24316C1.6377 5.12467 1.625 5.00195 1.625 4.875C1.625 4.38411 1.74772 3.93978 1.99316 3.54199C2.23861 3.14421 2.56868 2.78451 2.9834 2.46289C3.39811 2.14128 3.85938 1.86621 4.36719 1.6377C4.875 1.40918 5.39551 1.20182 5.92871 1.01562C6.46191 0.829427 6.97396 0.689779 7.46484 0.59668C7.95573 0.503581 8.3916 0.418945 8.77246 0.342773C10.1689 0.114258 11.5781 0 13 0C13.4316 0 13.859 0.00846354 14.2822 0.0253906C14.7054 0.0423177 15.137 0.0761719 15.5771 0.126953C15.0186 0.296224 14.4811 0.503581 13.9648 0.749023C13.4486 0.994466 12.9492 1.29069 12.4668 1.6377C12.0605 1.64616 11.612 1.66732 11.1211 1.70117C10.6302 1.73503 10.1224 1.78581 9.59766 1.85352C9.07292 1.92122 8.53971 2.01009 7.99805 2.12012C7.45638 2.23014 6.93587 2.36556 6.43652 2.52637C5.93717 2.68717 5.46745 2.87337 5.02734 3.08496C4.58724 3.29655 4.20638 3.54199 3.88477 3.82129C3.73242 3.95671 3.58854 4.11328 3.45312 4.29102C3.31771 4.46875 3.25 4.66341 3.25 4.875C3.25 5.00195 3.27539 5.12044 3.32617 5.23047C3.37695 5.34049 3.44466 5.45052 3.5293 5.56055C3.61393 5.67057 3.7028 5.7679 3.7959 5.85254C3.889 5.93717 3.98633 6.01758 4.08789 6.09375C4.44336 6.36458 4.84961 6.60156 5.30664 6.80469C5.76367 7.00781 6.25456 7.18131 6.7793 7.3252C7.30404 7.46908 7.83724 7.59603 8.37891 7.70605C8.92057 7.81608 9.46647 7.89648 10.0166 7.94727C10.5667 7.99805 11.0915 8.0446 11.5908 8.08691C12.0902 8.12923 12.5599 8.14193 13 8.125H13.2793C13.3724 8.125 13.4655 8.12077 13.5586 8.1123L13.5713 8.125H21.5947C20.9684 8.42122 20.2998 8.6709 19.5889 8.87402C18.8779 9.07715 18.1458 9.24642 17.3926 9.38184C16.6393 9.51725 15.8903 9.61035 15.1455 9.66113C14.4007 9.71191 13.6855 9.74154 13 9.75C12.2891 9.75 11.5358 9.72038 10.7402 9.66113C9.94466 9.60189 9.14909 9.49609 8.35352 9.34375C7.55794 9.19141 6.7793 9.00098 6.01758 8.77246C5.25586 8.54395 4.56185 8.25195 3.93555 7.89648L7.23633 22.5469C8.08268 23.1393 9.00098 23.5837 9.99121 23.8799C10.9814 24.1761 11.9928 24.3285 13.0254 24.3369C14.0495 24.3369 15.0524 24.1888 16.0342 23.8926C17.016 23.5964 17.9342 23.1478 18.7891 22.5469L22.0137 8.125ZM26 0V6.5H19.5V4.875H23.207C22.5638 4.36719 21.8571 3.9821 21.0869 3.71973C20.3167 3.45736 19.5212 3.32617 18.7002 3.32617C17.7354 3.32617 16.8128 3.50814 15.9326 3.87207C15.0524 4.236 14.2653 4.76074 13.5713 5.44629L12.4287 4.30371C13.2666 3.46582 14.223 2.82259 15.2979 2.37402C16.3727 1.92546 17.5068 1.70117 18.7002 1.70117C19.7327 1.70117 20.7357 1.87467 21.709 2.22168C22.6823 2.56868 23.571 3.07227 24.375 3.73242V0H26Z" fill="black"/>
</svg>
