<svg width="28" height="33" viewBox="0 0 28 33" fill="none" xmlns="http://www.w3.org/2000/svg">
<path d="M14 0C15.8565 0 17.637 0.848103 18.9497 2.35774C20.2625 3.86737 21 5.91487 21 8.04982C21 10.1848 20.2625 12.2323 18.9497 13.7419C17.637 15.2515 15.8565 16.0996 14 16.0996C12.1435 16.0996 10.363 15.2515 9.05025 13.7419C7.7375 12.2323 7 10.1848 7 8.04982C7 5.91487 7.7375 3.86737 9.05025 2.35774C10.363 0.848103 12.1435 0 14 0ZM14 20.1245C21.735 20.1245 28 23.7268 28 28.1744V32.1993H0V28.1744C0 23.7268 6.265 20.1245 14 20.1245Z" fill="white"/>
</svg>
