<svg width="410" height="34" viewBox="0 0 410 34" fill="none" xmlns="http://www.w3.org/2000/svg">
<path d="M159 14.0001V5.0015C159 3.49933 160.401 2.00171 162.001 2.00171C163.604 2.00171 165.001 3.49857 165.001 5.0015V14.0001" stroke="white" stroke-width="4" stroke-linecap="round" stroke-linejoin="round"/>
<path d="M181 14.0007C184.314 14.0007 187 11.3142 187 8.00033C187 4.68644 184.314 2 181 2C177.686 2 175 4.68644 175 8.00033C175 11.3142 177.686 14.0007 181 14.0007Z" stroke="white" stroke-width="4" stroke-linecap="round" stroke-linejoin="round"/>
<path d="M165 5.00076C165 3.4986 166.4 2.00098 168 2.00098C169.604 2.00098 171.001 3.49784 171.001 5.00076V13.9994M159 30.0002V21.0001C159 19.4987 160.4 18.0003 162 18.0003C163.603 18.0003 165 19.498 165 21.0009M165 21.0009V30.0002M165 21.0009C165 19.4987 166.4 18.0003 168 18.0003C169.604 18.0003 171.001 19.498 171.001 21.0009V30.0002" stroke="white" stroke-width="4" stroke-linecap="round" stroke-linejoin="round"/>
<path d="M181 30.0002C184.314 30.0002 187 27.3137 187 23.9998C187 20.6859 184.314 17.9995 181 17.9995C177.686 17.9995 175 20.6859 175 23.9998C175 27.3137 177.686 30.0002 181 30.0002Z" stroke="white" stroke-width="4" stroke-linecap="round" stroke-linejoin="round"/>
<path d="M281.124 0H267.155L261 28.5217H269.16L271.166 19.0609H277.044C279.902 19.0609 282.38 18.2261 284.478 16.5565C286.576 14.887 287.924 12.5913 288.523 9.66957C289.169 6.6087 288.685 4.23188 287.071 2.53913C285.458 0.846377 283.475 0 281.124 0ZM275.038 13.5652H272.341L274.07 5.77391H278.081C279.51 5.77391 280.432 6.44638 280.847 7.7913C280.801 7.7913 280.721 7.77971 280.605 7.75652C280.49 7.73333 280.409 7.72174 280.363 7.72174H276.352L275.038 13.5652ZM280.847 9.66957C280.617 10.7362 280.064 11.6406 279.188 12.3826C278.312 13.1246 277.367 13.5188 276.352 13.5652L277.32 9.32174H280.916C280.916 9.46087 280.893 9.57681 280.847 9.66957ZM290.806 11.6174C291.22 9.57681 291.082 7.76812 290.391 6.1913C291.866 8 292.327 10.342 291.774 13.2174C291.128 16.1391 289.757 18.4232 287.659 20.0696C285.561 21.7159 283.083 22.5391 280.225 22.5391H274.347L272.341 32H264.181L264.527 30.4696H271.373L273.379 21.0087H279.257C282.115 21.0087 284.593 20.1739 286.691 18.5043C288.789 16.8348 290.16 14.5391 290.806 11.6174Z" fill="white"/>
<path d="M43.9599 10.9515C43.9115 14.852 47.3676 17.0285 49.971 18.3227C52.6459 19.6505 53.5444 20.502 53.5337 21.6895C53.5138 23.5066 51.4001 24.3087 49.4222 24.3398C45.9714 24.3944 43.9649 23.3894 42.3698 22.6294L41.1267 28.5631C42.7271 29.3154 45.6905 29.9715 48.7634 30.0002C55.9768 30.0002 60.696 26.368 60.7215 20.7363C60.7498 13.589 51.0302 13.1934 51.0966 9.99874C51.1195 9.03005 52.0256 7.99632 54.0112 7.73349C54.994 7.60072 57.707 7.49911 60.783 8.94402L61.9902 3.20298C60.3361 2.58857 58.2101 2.00024 55.5631 2.00024C48.7737 2.00024 43.9985 5.68196 43.9599 10.9515ZM73.5907 2.49475C72.2736 2.49475 71.1636 3.27851 70.6682 4.48125L60.3643 29.5786H67.5723L69.0067 25.5348H77.8148L78.6469 29.5786H85L79.4561 2.49475H73.5907ZM74.5991 9.8111L76.6793 19.9814H70.9823L74.5991 9.8111ZM35.2205 2.49509L29.5388 29.5782H36.4076L42.0866 2.49441H35.2205M25.0594 2.49441L17.9101 20.9291L15.0181 5.25485C14.6788 3.50511 13.3387 2.49475 11.8505 2.49475H0.163691L0 3.28122C2.39926 3.81231 5.12523 4.66889 6.77676 5.58543C7.78746 6.14531 8.07566 6.63473 8.4077 7.96516L13.8852 29.5786H21.1437L32.2721 2.49475L25.0594 2.49441Z" fill="url(#paint0_linear_58_246)"/>
<path d="M382.473 13.3267C382.473 9.06962 384.472 5.29365 387.545 2.85036C385.287 1.0735 382.436 0 379.327 0C371.96 0 366 5.95991 366 13.3267C366 20.6933 371.96 26.6534 379.327 26.6534C382.436 26.6534 385.287 25.5799 387.545 23.8029C384.472 21.3967 382.473 17.5838 382.473 13.3267Z" fill="#EB001B"/>
<path d="M373.848 33.3909V31.1698C373.848 30.3182 373.33 29.7631 372.441 29.7631C371.997 29.7631 371.516 29.9112 371.183 30.3924C370.923 29.9852 370.553 29.7631 369.998 29.7631C369.628 29.7631 369.258 29.8741 368.961 30.2813V29.8371H368.184V33.3909H368.961V31.4288C368.961 30.7997 369.295 30.5034 369.813 30.5034C370.331 30.5034 370.59 30.8366 370.59 31.4288V33.3909H371.368V31.4288C371.368 30.7997 371.738 30.5034 372.219 30.5034C372.737 30.5034 372.996 30.8366 372.996 31.4288V33.3909H373.848ZM385.361 29.8371H384.102V28.7636H383.325V29.8371H382.621V30.5403H383.325V32.1693C383.325 32.9838 383.658 33.4649 384.546 33.4649C384.88 33.4649 385.249 33.3539 385.509 33.2059L385.287 32.5394C385.065 32.6875 384.805 32.7246 384.62 32.7246C384.25 32.7246 384.102 32.5025 384.102 32.1322V30.5403H385.361V29.8371ZM391.95 29.7629C391.506 29.7629 391.21 29.9852 391.025 30.2813V29.8371H390.247V33.3909H391.025V31.3919C391.025 30.7997 391.284 30.4665 391.765 30.4665C391.913 30.4665 392.098 30.5036 392.246 30.5405L392.468 29.8002C392.32 29.7631 392.098 29.7631 391.95 29.7631V29.7629ZM381.992 30.1332C381.622 29.8741 381.104 29.7631 380.548 29.7631C379.66 29.7631 379.068 30.2073 379.068 30.9106C379.068 31.503 379.512 31.8361 380.289 31.9472L380.659 31.9843C381.067 32.0582 381.289 32.1693 381.289 32.3545C381.289 32.6135 380.993 32.7986 380.474 32.7986C379.956 32.7986 379.549 32.6135 379.29 32.4285L378.919 33.0207C379.327 33.3168 379.882 33.4649 380.437 33.4649C381.474 33.4649 382.066 32.9838 382.066 32.3174C382.066 31.688 381.585 31.3548 380.844 31.2439L380.474 31.2068C380.141 31.1697 379.882 31.0958 379.882 30.8737C379.882 30.6145 380.141 30.4665 380.548 30.4665C380.993 30.4665 381.437 30.6515 381.659 30.7626L381.992 30.1332ZM402.648 29.7631C402.204 29.7631 401.908 29.9852 401.723 30.2813V29.8371H400.945V33.3909H401.723V31.3919C401.723 30.7997 401.982 30.4665 402.463 30.4665C402.611 30.4665 402.797 30.5036 402.945 30.5405L403.167 29.8002C403.019 29.7631 402.797 29.7631 402.648 29.7631ZM392.727 31.614C392.727 32.6875 393.468 33.4649 394.615 33.4649C395.134 33.4649 395.504 33.3539 395.874 33.0578L395.504 32.4285C395.208 32.6506 394.912 32.7615 394.578 32.7615C393.949 32.7615 393.505 32.3174 393.505 31.614C393.505 30.9477 393.949 30.5034 394.578 30.4665C394.912 30.4665 395.208 30.5774 395.504 30.7997L395.874 30.1703C395.504 29.8741 395.134 29.7631 394.615 29.7631C393.468 29.7631 392.727 30.5405 392.727 31.614ZM399.909 31.614V29.8371H399.132V30.2813C398.872 29.9483 398.502 29.7631 398.021 29.7631C397.022 29.7631 396.244 30.5405 396.244 31.614C396.244 32.6875 397.022 33.4649 398.021 33.4649C398.539 33.4649 398.91 33.2799 399.132 32.9467V33.3909H399.909V31.614ZM397.059 31.614C397.059 30.9847 397.466 30.4665 398.132 30.4665C398.761 30.4665 399.206 30.9477 399.206 31.614C399.206 32.2433 398.761 32.7615 398.132 32.7615C397.466 32.7244 397.059 32.2433 397.059 31.614ZM387.767 29.7631C386.73 29.7631 385.99 30.5034 385.99 31.614C385.99 32.7246 386.73 33.4649 387.804 33.4649C388.322 33.4649 388.84 33.3168 389.248 32.9838L388.877 32.4285C388.581 32.6506 388.211 32.7986 387.841 32.7986C387.36 32.7986 386.878 32.5765 386.767 31.947H389.396V31.6511C389.433 30.5034 388.767 29.7631 387.767 29.7631ZM387.767 30.4294C388.248 30.4294 388.581 30.7256 388.655 31.2809H386.804C386.878 30.7997 387.212 30.4294 387.767 30.4294ZM407.054 31.614V28.4304H406.276V30.2813C406.017 29.9483 405.647 29.7631 405.166 29.7631C404.166 29.7631 403.389 30.5405 403.389 31.614C403.389 32.6875 404.166 33.4649 405.166 33.4649C405.684 33.4649 406.054 33.2799 406.276 32.9467V33.3909H407.054V31.614ZM404.203 31.614C404.203 30.9847 404.61 30.4665 405.277 30.4665C405.906 30.4665 406.35 30.9477 406.35 31.614C406.35 32.2433 405.906 32.7615 405.277 32.7615C404.61 32.7244 404.203 32.2433 404.203 31.614ZM378.216 31.614V29.8371H377.439V30.2813C377.18 29.9483 376.809 29.7631 376.328 29.7631C375.329 29.7631 374.551 30.5405 374.551 31.614C374.551 32.6875 375.329 33.4649 376.328 33.4649C376.846 33.4649 377.217 33.2799 377.439 32.9467V33.3909H378.216V31.614ZM375.329 31.614C375.329 30.9847 375.736 30.4665 376.402 30.4665C377.031 30.4665 377.476 30.9477 377.476 31.614C377.476 32.2433 377.031 32.7615 376.402 32.7615C375.736 32.7244 375.329 32.2433 375.329 31.614Z" fill="#FFFCFC"/>
<path d="M381.733 2.85059H393.394V23.8031H381.733V2.85059Z" fill="#FF5F00"/>
<path d="M409.127 13.3267C409.127 20.6933 403.167 26.6534 395.8 26.6534C392.691 26.6534 389.84 25.5799 387.582 23.8029C390.692 21.3598 392.654 17.5838 392.654 13.3267C392.654 9.06962 390.654 5.29365 387.582 2.85036C389.84 1.0735 392.691 0 395.8 0C403.167 0 409.127 5.99701 409.127 13.3267Z" fill="#F79E1B"/>
<defs>
<linearGradient id="paint0_linear_58_246" x1="3907.79" y1="86.1682" x2="3990.46" y2="-2789.38" gradientUnits="userSpaceOnUse">
<stop stop-color="#222357"/>
<stop offset="1" stop-color="#254AA5"/>
</linearGradient>
</defs>
</svg>
