<svg width="410" height="34" viewBox="0 0 410 34" fill="none" xmlns="http://www.w3.org/2000/svg">
<path d="M159 14.0001V5.0015C159 3.49933 160.401 2.00171 162.001 2.00171C163.604 2.00171 165.001 3.49857 165.001 5.0015V14.0001" stroke="white" stroke-width="4" stroke-linecap="round" stroke-linejoin="round"/>
<path d="M181 14.0007C184.313 14.0007 187 11.3142 187 8.00033C187 4.68644 184.313 2 181 2C177.686 2 174.999 4.68644 174.999 8.00033C174.999 11.3142 177.686 14.0007 181 14.0007Z" stroke="white" stroke-width="4" stroke-linecap="round" stroke-linejoin="round"/>
<path d="M165 5.00076C165 3.4986 166.4 2.00098 168 2.00098C169.604 2.00098 171.001 3.49784 171.001 5.00076V13.9994M159 30.0002V21.0001C159 19.4987 160.4 18.0003 162 18.0003C163.603 18.0003 165 19.498 165 21.0009M165 21.0009V30.0002M165 21.0009C165 19.4987 166.4 18.0003 168 18.0003C169.604 18.0003 171.001 19.498 171.001 21.0009V30.0002" stroke="white" stroke-width="4" stroke-linecap="round" stroke-linejoin="round"/>
<path d="M181 30C184.313 30 187 27.3136 187 23.9997C187 20.6858 184.313 17.9994 181 17.9994C177.686 17.9994 174.999 20.6858 174.999 23.9997C174.999 27.3136 177.686 30 181 30Z" stroke="white" stroke-width="4" stroke-linecap="round" stroke-linejoin="round"/>
<path d="M281.124 0H267.155L261 28.5217H269.16L271.166 19.0609H277.044C279.902 19.0609 282.38 18.2261 284.478 16.5565C286.576 14.887 287.924 12.5913 288.523 9.66957C289.169 6.6087 288.685 4.23188 287.071 2.53913C285.458 0.846377 283.475 0 281.124 0ZM275.038 13.5652H272.341L274.07 5.77391H278.081C279.51 5.77391 280.432 6.44638 280.847 7.7913C280.801 7.7913 280.721 7.77971 280.605 7.75652C280.49 7.73333 280.409 7.72174 280.363 7.72174H276.352L275.038 13.5652ZM280.847 9.66957C280.617 10.7362 280.064 11.6406 279.188 12.3826C278.312 13.1246 277.367 13.5188 276.352 13.5652L277.32 9.32174H280.916C280.916 9.46087 280.893 9.57681 280.847 9.66957ZM290.806 11.6174C291.22 9.57681 291.082 7.76812 290.391 6.1913C291.866 8 292.327 10.342 291.774 13.2174C291.128 16.1391 289.757 18.4232 287.659 20.0696C285.561 21.7159 283.083 22.5391 280.225 22.5391H274.347L272.341 32H264.181L264.527 30.4696H271.373L273.379 21.0087H279.257C282.115 21.0087 284.593 20.1739 286.691 18.5043C288.789 16.8348 290.16 14.5391 290.806 11.6174Z" fill="white"/>
<path d="M43.9599 10.9513C43.9115 14.8518 47.3676 17.0283 49.971 18.3225C52.6459 19.6502 53.5444 20.5017 53.5337 21.6892C53.5138 23.5064 51.4001 24.3084 49.4222 24.3396C45.9714 24.3941 43.9649 23.3892 42.3698 22.6291L41.1267 28.5629C42.7271 29.3151 45.6905 29.9712 48.7634 30C55.9768 30 60.696 26.3677 60.7215 20.7361C60.7498 13.5888 51.0302 13.1932 51.0966 9.9985C51.1195 9.0298 52.0256 7.99608 54.0112 7.73325C54.994 7.60047 57.707 7.49886 60.783 8.94378L61.9902 3.20274C60.3361 2.58833 58.2101 2 55.5631 2C48.7737 2 43.9985 5.68171 43.9599 10.9513ZM73.5907 2.49451C72.2736 2.49451 71.1636 3.27827 70.6682 4.48101L60.3643 29.5783H67.5723L69.0067 25.5345H77.8148L78.6469 29.5783H85L79.4561 2.49451H73.5907ZM74.5991 9.81086L76.6793 19.9811H70.9823L74.5991 9.81086ZM35.2205 2.49485L29.5388 29.578H36.4076L42.0866 2.49417H35.2205M25.0594 2.49417L17.9101 20.9288L15.0181 5.25461C14.6788 3.50486 13.3387 2.49451 11.8505 2.49451H0.163691L0 3.28098C2.39926 3.81207 5.12523 4.66865 6.77676 5.58518C7.78746 6.14506 8.07566 6.63449 8.4077 7.96492L13.8852 29.5783H21.1437L32.2721 2.49451L25.0594 2.49417Z" fill="url(#paint0_linear_11_823)"/>
<path d="M382.473 13.3267C382.473 9.06962 384.472 5.29365 387.545 2.85036C385.287 1.0735 382.436 0 379.327 0C371.96 0 366 5.95991 366 13.3267C366 20.6933 371.96 26.6534 379.327 26.6534C382.436 26.6534 385.287 25.5799 387.545 23.8029C384.472 21.3967 382.473 17.5838 382.473 13.3267Z" fill="#EB001B"/>
<path d="M373.848 33.3907V31.1697C373.848 30.3181 373.33 29.763 372.441 29.763C371.997 29.763 371.516 29.911 371.183 30.3923C370.923 29.9851 370.553 29.763 369.998 29.763C369.628 29.763 369.258 29.8739 368.961 30.2812V29.837H368.184V33.3907H368.961V31.4287C368.961 30.7996 369.295 30.5033 369.813 30.5033C370.331 30.5033 370.59 30.8365 370.59 31.4287V33.3907H371.368V31.4287C371.368 30.7996 371.738 30.5033 372.219 30.5033C372.737 30.5033 372.996 30.8365 372.996 31.4287V33.3907H373.848ZM385.361 29.837H384.102V28.7635H383.325V29.837H382.621V30.5402H383.325V32.1692C383.325 32.9837 383.658 33.4648 384.546 33.4648C384.88 33.4648 385.249 33.3538 385.509 33.2057L385.287 32.5393C385.065 32.6874 384.805 32.7245 384.62 32.7245C384.25 32.7245 384.102 32.5024 384.102 32.1321V30.5402H385.361V29.837ZM391.95 29.7628C391.506 29.7628 391.21 29.9851 391.025 30.2812V29.837H390.247V33.3907H391.025V31.3918C391.025 30.7996 391.284 30.4663 391.765 30.4663C391.913 30.4663 392.098 30.5034 392.246 30.5404L392.468 29.8001C392.32 29.763 392.098 29.763 391.95 29.763V29.7628ZM381.992 30.1331C381.622 29.8739 381.104 29.763 380.548 29.763C379.66 29.763 379.068 30.2072 379.068 30.9105C379.068 31.5029 379.512 31.836 380.289 31.9471L380.659 31.9842C381.067 32.058 381.289 32.1692 381.289 32.3543C381.289 32.6133 380.993 32.7985 380.474 32.7985C379.956 32.7985 379.549 32.6133 379.29 32.4284L378.919 33.0206C379.327 33.3167 379.882 33.4648 380.437 33.4648C381.474 33.4648 382.066 32.9837 382.066 32.3172C382.066 31.6879 381.585 31.3547 380.844 31.2437L380.474 31.2066C380.141 31.1695 379.882 31.0957 379.882 30.8736C379.882 30.6144 380.141 30.4663 380.548 30.4663C380.993 30.4663 381.437 30.6513 381.659 30.7625L381.992 30.1331ZM402.648 29.763C402.204 29.763 401.908 29.9851 401.723 30.2812V29.837H400.945V33.3907H401.723V31.3918C401.723 30.7996 401.982 30.4663 402.463 30.4663C402.611 30.4663 402.797 30.5034 402.945 30.5404L403.167 29.8001C403.019 29.763 402.797 29.763 402.648 29.763ZM392.727 31.6139C392.727 32.6874 393.468 33.4648 394.615 33.4648C395.134 33.4648 395.504 33.3538 395.874 33.0577L395.504 32.4284C395.208 32.6504 394.912 32.7614 394.578 32.7614C393.949 32.7614 393.505 32.3172 393.505 31.6139C393.505 30.9476 393.949 30.5033 394.578 30.4663C394.912 30.4663 395.208 30.5773 395.504 30.7996L395.874 30.1702C395.504 29.8739 395.134 29.763 394.615 29.763C393.468 29.763 392.727 30.5404 392.727 31.6139ZM399.909 31.6139V29.837H399.132V30.2812C398.872 29.9481 398.502 29.763 398.021 29.763C397.022 29.763 396.244 30.5404 396.244 31.6139C396.244 32.6874 397.022 33.4648 398.021 33.4648C398.539 33.4648 398.91 33.2798 399.132 32.9466V33.3907H399.909V31.6139ZM397.059 31.6139C397.059 30.9845 397.466 30.4663 398.132 30.4663C398.761 30.4663 399.206 30.9476 399.206 31.6139C399.206 32.2432 398.761 32.7614 398.132 32.7614C397.466 32.7243 397.059 32.2432 397.059 31.6139ZM387.767 29.763C386.73 29.763 385.99 30.5033 385.99 31.6139C385.99 32.7245 386.73 33.4648 387.804 33.4648C388.322 33.4648 388.84 33.3167 389.248 32.9837L388.877 32.4284C388.581 32.6504 388.211 32.7985 387.841 32.7985C387.36 32.7985 386.878 32.5764 386.767 31.9469H389.396V31.651C389.433 30.5033 388.767 29.763 387.767 29.763ZM387.767 30.4292C388.248 30.4292 388.581 30.7255 388.655 31.2808H386.804C386.878 30.7996 387.212 30.4292 387.767 30.4292ZM407.054 31.6139V28.4303H406.276V30.2812C406.017 29.9481 405.647 29.763 405.166 29.763C404.166 29.763 403.389 30.5404 403.389 31.6139C403.389 32.6874 404.166 33.4648 405.166 33.4648C405.684 33.4648 406.054 33.2798 406.276 32.9466V33.3907H407.054V31.6139ZM404.203 31.6139C404.203 30.9845 404.61 30.4663 405.277 30.4663C405.906 30.4663 406.35 30.9476 406.35 31.6139C406.35 32.2432 405.906 32.7614 405.277 32.7614C404.61 32.7243 404.203 32.2432 404.203 31.6139ZM378.216 31.6139V29.837H377.439V30.2812C377.18 29.9481 376.809 29.763 376.328 29.763C375.329 29.763 374.551 30.5404 374.551 31.6139C374.551 32.6874 375.329 33.4648 376.328 33.4648C376.846 33.4648 377.217 33.2798 377.439 32.9466V33.3907H378.216V31.6139ZM375.329 31.6139C375.329 30.9845 375.736 30.4663 376.402 30.4663C377.031 30.4663 377.476 30.9476 377.476 31.6139C377.476 32.2432 377.031 32.7614 376.402 32.7614C375.736 32.7243 375.329 32.2432 375.329 31.6139Z" fill="#FFFCFC"/>
<path d="M381.733 2.85046H393.394V23.803H381.733V2.85046Z" fill="#FF5F00"/>
<path d="M409.127 13.3266C409.127 20.6932 403.167 26.6533 395.8 26.6533C392.69 26.6533 389.84 25.5798 387.582 23.8028C390.691 21.3596 392.653 17.5837 392.653 13.3266C392.653 9.0695 390.654 5.29353 387.582 2.85024C389.84 1.07338 392.69 -0.00012207 395.8 -0.00012207C403.167 -0.00012207 409.127 5.99689 409.127 13.3266Z" fill="#F79E1B"/>
<defs>
<linearGradient id="paint0_linear_11_823" x1="3907.79" y1="86.168" x2="3990.46" y2="-2789.38" gradientUnits="userSpaceOnUse">
<stop stop-color="#222357"/>
<stop offset="1" stop-color="#254AA5"/>
</linearGradient>
</defs>
</svg>
