<svg width="36" height="45" viewBox="0 0 36 45" fill="none" xmlns="http://www.w3.org/2000/svg">
<path d="M18 0C19.8565 0 21.637 0.848103 22.9497 2.35774C24.2625 3.86737 25 5.91487 25 8.04982C25 10.1848 24.2625 12.2323 22.9497 13.7419C21.637 15.2515 19.8565 16.0996 18 16.0996C16.1435 16.0996 14.363 15.2515 13.0503 13.7419C11.7375 12.2323 11 10.1848 11 8.04982C11 5.91487 11.7375 3.86737 13.0503 2.35774C14.363 0.848103 16.1435 0 18 0ZM18 20.1245C25.735 20.1245 32 23.7268 32 28.1744V32.1993H4V28.1744C4 23.7268 10.265 20.1245 18 20.1245Z" fill="white"/>
<line x1="-1.31134e-07" y1="43.5" x2="36" y2="43.5" stroke="white" stroke-width="3"/>
</svg>
