<svg width="57" height="43" viewBox="0 0 57 43" fill="none" xmlns="http://www.w3.org/2000/svg">
<path d="M5.9 1H50.7C53.4062 1 55.6 2.65507 55.6 4.69672V38.4953C55.6 40.5369 53.4062 42.192 50.7 42.192H5.9C3.1938 42.192 1 40.5369 1 38.4953V4.69672C1 2.65507 3.1938 1 5.9 1Z" fill="white" stroke="#D9D9D9"/>
<path d="M14.5758 9.97803C13.6711 9.97803 12.9243 10.5407 12.9243 11.2234V30.5787C12.9243 31.2613 13.6711 31.8241 14.5758 31.8241H40.2298C41.1345 31.8241 41.8812 31.2613 41.8812 30.5787V11.2234C41.8812 10.5407 41.1345 9.97803 40.2298 9.97803H14.5758Z" fill="#E4A862"/>
<path d="M18.4818 23.7139H36.7184C36.8951 23.7139 37.0383 23.8219 37.0383 23.9551V31.6578C37.0383 31.7911 36.8951 31.8991 36.7184 31.8991H18.4818C18.3051 31.8991 18.1619 31.7911 18.1619 31.6578V23.9552C18.1619 23.8218 18.3051 23.7139 18.4818 23.7139Z" fill="#1C92D3"/>
<path d="M35.5109 29.8536C34.9439 29.9812 34.496 30.3191 34.3267 30.7469C34.3041 30.8043 34.2356 30.8444 34.1561 30.8444H21.044C20.9644 30.8444 20.896 30.8043 20.8733 30.7469C20.7042 30.3192 20.2563 29.9812 19.6892 29.8536C19.613 29.8365 19.56 29.7847 19.5598 29.7248V25.8884C19.5598 25.8284 19.613 25.7767 19.6892 25.7596C20.2563 25.632 20.704 25.2942 20.8733 24.8663C20.896 24.8088 20.9644 24.7688 21.0438 24.7688H34.1562C34.2356 24.7688 34.3042 24.8088 34.3269 24.8663C34.496 25.2941 34.9439 25.6319 35.5109 25.7595C35.587 25.7766 35.6401 25.8284 35.6401 25.8883V29.7248C35.6401 29.7847 35.587 29.8365 35.5109 29.8536Z" fill="#40C0F2"/>
<path d="M27.6001 25.78C26.3204 25.78 25.283 26.5627 25.283 27.5282C25.283 28.4936 26.3204 29.2764 27.6001 29.2764C28.8798 29.2764 29.9174 28.4936 29.9174 27.5282C29.9174 26.5627 28.8798 25.78 27.6001 25.78Z" fill="#1C92D3"/>
<path d="M22.3965 9.97803V15.2418C22.3965 15.3419 22.4495 15.4379 22.5436 15.5083L24.0376 16.6382C24.2324 16.7859 24.5493 16.7859 24.7441 16.6382L25.8885 15.7749L27.0294 16.6382C27.2241 16.7859 27.5409 16.7859 27.7358 16.6382L28.8765 15.7749L30.021 16.6382C30.2159 16.7859 30.5327 16.7859 30.7275 16.6382L32.2215 15.5083C32.3155 15.4379 32.3685 15.3419 32.3687 15.2418V9.97803H22.3965Z" fill="#FFDFB9"/>
<path d="M39.4454 26.9013H33.859C33.2152 26.9013 32.6933 27.0886 32.6933 27.5742C32.5707 28.4323 34.9279 29.4483 36.6849 29.4483C37.5366 29.4483 38.5042 29.4483 39.0376 29.448C39.2985 29.448 39.5486 29.5261 39.7355 29.6671L39.745 29.6743C40.0531 29.9069 40.1157 30.4043 39.8974 30.6889L37.6672 31.8894H36.7509H35.3255H28.6055C29.3402 32.5835 32.8669 33.989 33.1478 34.2586C33.4601 34.5585 33.9218 34.6669 34.425 34.7028L39.0311 35.1128C39.6951 35.1601 40.3621 35.0522 40.9423 34.8039C42.2416 34.2478 44.6348 33.3356 45.7268 33.0787H49.4813V28.1748H47.6735C47.3337 28.1748 46.9995 28.11 46.7019 27.9865L44.1784 27.0418C43.3819 26.7479 42.4901 26.6328 41.6094 26.7105L39.4454 26.9013Z" fill="#FCD7C3"/>
<path d="M41.6095 26.7106L39.4455 26.9013H33.8592C33.2154 26.9013 32.6936 27.0886 32.6936 27.5743C32.6484 27.8896 32.9384 28.2264 33.4107 28.5262C34.1021 28.9653 34.9866 29.1933 35.8905 29.1933H39.4455L41.6095 29.0025C42.4902 28.9248 43.3819 29.0398 44.1785 29.3338L46.702 30.2785C46.9996 30.402 47.3338 30.4669 47.6736 30.4669H49.4814V28.1749H47.6736C47.3338 28.1749 46.9996 28.1101 46.702 27.9865L44.1785 27.0418C43.3819 26.7479 42.4901 26.633 41.6095 26.7106Z" fill="#FFCDAC"/>
<path d="M51.0485 27.7881V33.4639C51.0485 33.6743 50.8224 33.8448 50.5437 33.8448H49.2197C48.9408 33.8448 48.7148 33.6743 48.7148 33.4639V27.788C48.7148 27.5777 48.9408 27.4071 49.2197 27.4071L50.5437 27.4072C50.8224 27.4071 51.0485 27.5777 51.0485 27.7881Z" fill="#464C50"/>
<path d="M48.7148 27.788V29.713H51.0485V27.788C51.0485 27.5776 50.8225 27.4071 50.5437 27.4071H49.2198C48.9409 27.4071 48.7148 27.5776 48.7148 27.788Z" fill="#33393A"/>
</svg>
