<svg width="34" height="43" viewBox="0 0 34 43" fill="none" xmlns="http://www.w3.org/2000/svg">
<path d="M30.2222 7H3.77778C2.77585 7 1.81496 7.45384 1.10649 8.26169C0.398015 9.06954 0 10.1652 0 11.3077L0 30.6923C0 31.8348 0.398015 32.9305 1.10649 33.7383C1.81496 34.5462 2.77585 35 3.77778 35H30.2222C31.2241 35 32.185 34.5462 32.8935 33.7383C33.602 32.9305 34 31.8348 34 30.6923V11.3077C34 10.1652 33.602 9.06954 32.8935 8.26169C32.185 7.45384 31.2241 7 30.2222 7Z" fill="#DA251D"/>
<path d="M18.6554 18.1553L16.9998 11.7113L15.3442 18.1553H9.9873L14.3214 22.1364L12.6657 28.5804L16.9998 24.5982L21.3339 28.5804L19.6783 22.1364L24.0123 18.1553H18.6554Z" fill="#FFFF00"/>
</svg>
