<svg width="34" height="36" viewBox="0 0 34 36" fill="none" xmlns="http://www.w3.org/2000/svg">
<path d="M30.2222 5.86047H3.77778C2.77585 5.86047 1.81496 6.24044 1.10649 6.91678C0.398015 7.59311 0 8.51043 0 9.46691L0 25.6959C0 26.6524 0.398015 27.5697 1.10649 28.246C1.81496 28.9224 2.77585 29.3023 3.77778 29.3023H30.2222C31.2241 29.3023 32.185 28.9224 32.8935 28.246C33.602 27.5697 34 26.6524 34 25.6959V9.46691C34 8.51043 33.602 7.59311 32.8935 6.91678C32.185 6.24044 31.2241 5.86047 30.2222 5.86047Z" fill="#DA251D"/>
<path d="M18.6557 15.1998L17 9.80481L15.3444 15.1998H9.98755L14.3216 18.5328L12.666 23.9278L17 20.5938L21.3341 23.9278L19.6785 18.5328L24.0125 15.1998H18.6557Z" fill="#FFFF00"/>
</svg>
