<svg width="34" height="47" viewBox="0 0 34 47" fill="none" xmlns="http://www.w3.org/2000/svg">
<path d="M30.2222 7.65118H3.77778C2.77585 7.65118 1.81496 8.14725 1.10649 9.03024C0.398015 9.91324 0 11.1108 0 12.3596L0 33.5474C0 34.7962 0.398015 35.9938 1.10649 36.8768C1.81496 37.7598 2.77585 38.2558 3.77778 38.2558H30.2222C31.2241 38.2558 32.185 37.7598 32.8935 36.8768C33.602 35.9938 34 34.7962 34 33.5474V12.3596C34 11.1108 33.602 9.91324 32.8935 9.03024C32.185 8.14725 31.2241 7.65118 30.2222 7.65118Z" fill="#DA251D"/>
<path d="M18.6554 19.8442L16.9998 12.8007L15.3442 19.8442H9.9873L14.3214 24.1956L12.6657 31.2391L16.9998 26.8864L21.3339 31.2391L19.6783 24.1956L24.0123 19.8442H18.6554Z" fill="#FFFF00"/>
</svg>
