<svg width="27" height="30" viewBox="0 0 27 30" fill="none" xmlns="http://www.w3.org/2000/svg">
<path d="M26.5862 26.2198L20.4654 19.7299C21.939 17.6499 22.7345 15.118 22.7318 12.5165C22.7318 5.87142 17.633 0.465149 11.3659 0.465149C5.09879 0.465149 0 5.87142 0 12.5165C0 19.1616 5.09879 24.5678 11.3659 24.5678C13.8195 24.5707 16.2073 23.7272 18.1691 22.1647L24.2898 28.6546C24.5997 28.9483 25.0038 29.105 25.4192 29.0927C25.8346 29.0804 26.2298 28.8999 26.5237 28.5883C26.8175 28.2767 26.9877 27.8577 26.9994 27.4172C27.011 26.9768 26.8631 26.5483 26.5862 26.2198ZM3.24741 12.5165C3.24741 10.814 3.72355 9.14968 4.61562 7.73409C5.5077 6.31849 6.77563 5.21517 8.2591 4.56364C9.74256 3.91212 11.3749 3.74165 12.9498 4.07379C14.5246 4.40594 15.9712 5.22578 17.1066 6.42964C18.242 7.63351 19.0152 9.16733 19.3284 10.8371C19.6417 12.5069 19.4809 14.2377 18.8664 15.8107C18.252 17.3836 17.2114 18.728 15.8763 19.6739C14.5412 20.6197 12.9716 21.1246 11.3659 21.1246C9.21355 21.1219 7.15007 20.2141 5.62812 18.6003C4.10616 16.9866 3.24999 14.7987 3.24741 12.5165Z" fill="white"/>
</svg>
