<svg width="27" height="32" viewBox="0 0 27 32" fill="none" xmlns="http://www.w3.org/2000/svg">
<path d="M26.5862 27.9327L20.4654 20.894C21.939 18.638 22.7345 15.892 22.7318 13.0705C22.7318 5.86348 17.633 0 11.3659 0C5.09879 0 0 5.86348 0 13.0705C0 20.2775 5.09879 26.141 11.3659 26.141C13.8195 26.1441 16.2073 25.2293 18.1691 23.5347L24.2898 30.5734C24.5997 30.8919 25.0038 31.0619 25.4192 31.0486C25.8346 31.0352 26.2298 30.8394 26.5237 30.5015C26.8175 30.1636 26.9877 29.7091 26.9994 29.2314C27.011 28.7537 26.8631 28.289 26.5862 27.9327ZM3.24741 13.0705C3.24741 11.224 3.72355 9.41897 4.61562 7.88366C5.5077 6.34835 6.77563 5.15172 8.2591 4.4451C9.74256 3.73847 11.3749 3.55359 12.9498 3.91382C14.5246 4.27406 15.9712 5.16323 17.1066 6.4689C18.242 7.77458 19.0152 9.43811 19.3284 11.2491C19.6417 13.0602 19.4809 14.9373 18.8664 16.6433C18.252 18.3492 17.2114 19.8073 15.8763 20.8332C14.5412 21.859 12.9716 22.4066 11.3659 22.4066C9.21355 22.4036 7.15007 21.419 5.62812 19.6688C4.10616 17.9186 3.24999 15.5457 3.24741 13.0705Z" fill="white"/>
</svg>
