<svg width="23" height="44" viewBox="0 0 23 44" fill="none" xmlns="http://www.w3.org/2000/svg">
<path d="M20.125 9.33301H17.25C17.25 4.64546 14.6769 0.848755 11.5 0.848755C8.32312 0.848755 5.75 4.64546 5.75 9.33301H2.875C1.29375 9.33301 0 11.242 0 13.5751V39.0279C0 41.3611 1.29375 43.27 2.875 43.27H20.125C21.7062 43.27 23 41.3611 23 39.0279V13.5751C23 11.242 21.7062 9.33301 20.125 9.33301ZM11.5 5.09088C13.0813 5.09088 14.375 6.99984 14.375 9.33301H8.625C8.625 6.99984 9.91875 5.09088 11.5 5.09088ZM20.125 39.0279H2.875V13.5751H5.75V17.8173C5.75 18.9838 6.39687 19.9383 7.1875 19.9383C7.97813 19.9383 8.625 18.9838 8.625 17.8173V13.5751H14.375V17.8173C14.375 18.9838 15.0219 19.9383 15.8125 19.9383C16.6031 19.9383 17.25 18.9838 17.25 17.8173V13.5751H20.125V39.0279Z" fill="white"/>
</svg>
