<svg width="31" height="27" viewBox="0 0 31 27" fill="none" xmlns="http://www.w3.org/2000/svg">
<path d="M23.8418 20.625C24.2295 20.625 24.5929 20.6982 24.9321 20.8447C25.2713 20.9912 25.5669 21.1914 25.8188 21.4453C26.0708 21.6992 26.2695 21.9971 26.4148 22.3389C26.5602 22.6807 26.6329 23.0469 26.6329 23.4375C26.6329 23.8281 26.5602 24.1943 26.4148 24.5361C26.2695 24.8779 26.0708 25.1758 25.8188 25.4297C25.5669 25.6836 25.2713 25.8838 24.9321 26.0303C24.5929 26.1768 24.2295 26.25 23.8418 26.25C23.4542 26.25 23.0908 26.1768 22.7516 26.0303C22.4124 25.8838 22.1168 25.6836 21.8649 25.4297C21.6129 25.1758 21.4142 24.8779 21.2689 24.5361C21.1235 24.1943 21.0508 23.8281 21.0508 23.4375C21.0508 23.1348 21.1041 22.8223 21.2107 22.5H13.4482C13.5548 22.8223 13.6081 23.1348 13.6081 23.4375C13.6081 23.8281 13.5354 24.1943 13.39 24.5361C13.2446 24.8779 13.046 25.1758 12.794 25.4297C12.542 25.6836 12.2465 25.8838 11.9073 26.0303C11.5681 26.1768 11.2047 26.25 10.817 26.25C10.4294 26.25 10.066 26.1768 9.72678 26.0303C9.3876 25.8838 9.09202 25.6836 8.84005 25.4297C8.58808 25.1758 8.38942 24.8779 8.24405 24.5361C8.09868 24.1943 8.026 23.8281 8.026 23.4375C8.026 22.9004 8.16652 22.4023 8.44756 21.9434C8.7286 21.4844 9.11625 21.1377 9.61049 20.9033L3.33067 1.875H0.583252V0H4.66804L5.90365 3.75H30.3542L26.0223 16.875H10.2501L11.4857 20.625H23.8418ZM11.7474 23.4375C11.7474 23.1836 11.6553 22.9639 11.4712 22.7783C11.287 22.5928 11.069 22.5 10.817 22.5C10.5651 22.5 10.347 22.5928 10.1629 22.7783C9.97875 22.9639 9.88669 23.1836 9.88669 23.4375C9.88669 23.6914 9.97875 23.9111 10.1629 24.0967C10.347 24.2822 10.5651 24.375 10.817 24.375C11.069 24.375 11.287 24.2822 11.4712 24.0967C11.6553 23.9111 11.7474 23.6914 11.7474 23.4375ZM23.8418 24.375C24.0938 24.375 24.3119 24.2822 24.496 24.0967C24.6801 23.9111 24.7722 23.6914 24.7722 23.4375C24.7722 23.1836 24.6801 22.9639 24.496 22.7783C24.3119 22.5928 24.0938 22.5 23.8418 22.5C23.5899 22.5 23.3718 22.5928 23.1877 22.7783C23.0036 22.9639 22.9115 23.1836 22.9115 23.4375C22.9115 23.6914 23.0036 23.9111 23.1877 24.0967C23.3718 24.2822 23.5899 24.375 23.8418 24.375Z" fill="white"/>
</svg>
