<svg width="27" height="37" viewBox="0 0 27 37" fill="none" xmlns="http://www.w3.org/2000/svg">
<path d="M26.5862 33.0861L20.4654 24.9265C21.939 22.3112 22.7345 19.128 22.7318 15.8571C22.7318 7.50242 17.633 0.7052 11.3659 0.7052C5.09879 0.7052 0 7.50242 0 15.8571C0 24.2119 5.09879 31.0091 11.3659 31.0091C13.8195 31.0127 16.2073 29.9522 18.1691 27.9877L24.2898 36.1473C24.5997 36.5166 25.0038 36.7136 25.4192 36.6981C25.8346 36.6826 26.2298 36.4557 26.5237 36.064C26.8175 35.6722 26.9877 35.1454 26.9994 34.5916C27.011 34.0378 26.8631 33.4991 26.5862 33.0861ZM3.24741 15.8571C3.24741 13.7166 3.72355 11.6241 4.61562 9.84431C5.5077 8.06451 6.77563 6.67732 8.2591 5.85817C9.74256 5.03901 11.3749 4.82468 12.9498 5.24229C14.5246 5.65989 15.9712 6.69066 17.1066 8.20426C18.242 9.71786 19.0152 11.6463 19.3284 13.7457C19.6417 15.8451 19.4809 18.0212 18.8664 19.9989C18.252 21.9765 17.2114 23.6668 15.8763 24.856C14.5412 26.0452 12.9716 26.68 11.3659 26.68C9.21355 26.6765 7.15007 25.5352 5.62812 23.5062C4.10616 21.4773 3.24999 18.7265 3.24741 15.8571Z" fill="white"/>
</svg>
