<svg width="23" height="39" viewBox="0 0 23 39" fill="none" xmlns="http://www.w3.org/2000/svg">
<path d="M20.125 7.77357H17.25C17.25 3.56119 14.6769 0.149353 11.5 0.149353C8.32312 0.149353 5.75 3.56119 5.75 7.77357H2.875C1.29375 7.77357 0 9.48902 0 11.5857V34.4583C0 36.555 1.29375 38.2705 2.875 38.2705H20.125C21.7062 38.2705 23 36.555 23 34.4583V11.5857C23 9.48902 21.7062 7.77357 20.125 7.77357ZM11.5 3.96146C13.0813 3.96146 14.375 5.67691 14.375 7.77357H8.625C8.625 5.67691 9.91875 3.96146 11.5 3.96146ZM20.125 34.4583H2.875V11.5857H5.75V15.3978C5.75 16.4461 6.39687 17.3038 7.1875 17.3038C7.97813 17.3038 8.625 16.4461 8.625 15.3978V11.5857H14.375V15.3978C14.375 16.4461 15.0219 17.3038 15.8125 17.3038C16.6031 17.3038 17.25 16.4461 17.25 15.3978V11.5857H20.125V34.4583Z" fill="white"/>
</svg>
