<svg width="15" height="15" viewBox="0 0 15 15" fill="none" xmlns="http://www.w3.org/2000/svg">
<path d="M5.625 8.625C4.9 8.625 4.28125 8.36875 3.76875 7.85625C3.25625 7.34375 3 6.725 3 6C3 5.275 3.25625 4.65625 3.76875 4.14375C4.28125 3.63125 4.9 3.375 5.625 3.375C6.35 3.375 6.96875 3.63125 7.48125 4.14375C7.99375 4.65625 8.25 5.275 8.25 6C8.25 6.725 7.99375 7.34375 7.48125 7.85625C6.96875 8.36875 6.35 8.625 5.625 8.625ZM5.625 7.125C5.9375 7.125 6.20325 7.0155 6.42225 6.7965C6.64125 6.5775 6.7505 6.312 6.75 6C6.75 5.6875 6.6405 5.42175 6.4215 5.20275C6.2025 4.98375 5.937 4.8745 5.625 4.875C5.3125 4.875 5.04675 4.9845 4.82775 5.2035C4.60875 5.4225 4.4995 5.688 4.5 6C4.5 6.3125 4.6095 6.57825 4.8285 6.79725C5.0475 7.01625 5.313 7.1255 5.625 7.125ZM10.875 9.375C10.35 9.375 9.90625 9.19375 9.54375 8.83125C9.18125 8.46875 9 8.025 9 7.5C9 6.975 9.18125 6.53125 9.54375 6.16875C9.90625 5.80625 10.35 5.625 10.875 5.625C11.4 5.625 11.8437 5.80625 12.2062 6.16875C12.5687 6.53125 12.75 6.975 12.75 7.5C12.75 8.025 12.5687 8.46875 12.2062 8.83125C11.8437 9.19375 11.4 9.375 10.875 9.375ZM6.225 13.35C6.7875 12.2125 7.5375 11.453 8.475 11.0715C9.4125 10.69 10.2125 10.4995 10.875 10.5C11.1625 10.5 11.4437 10.525 11.7187 10.575C11.9937 10.625 12.2625 10.6875 12.525 10.7625C12.825 10.2875 13.0625 9.775 13.2375 9.225C13.4125 8.675 13.5 8.1 13.5 7.5C13.5 5.825 12.9187 4.40625 11.7562 3.24375C10.5937 2.08125 9.175 1.5 7.5 1.5C5.825 1.5 4.40625 2.08125 3.24375 3.24375C2.08125 4.40625 1.5 5.825 1.5 7.5C1.5 8.0625 1.57175 8.6 1.71525 9.1125C1.85875 9.625 2.0745 10.1 2.3625 10.5375C2.85 10.2875 3.3655 10.0937 3.909 9.95625C4.4525 9.81875 5.0245 9.75 5.625 9.75C6.025 9.75 6.40925 9.7845 6.77775 9.8535C7.14625 9.9225 7.512 10.013 7.875 10.125C7.5875 10.275 7.3155 10.45 7.059 10.65C6.8025 10.85 6.562 11.0625 6.3375 11.2875C6.1875 11.2625 6.0595 11.25 5.9535 11.25H5.625C5.2125 11.25 4.8125 11.2937 4.425 11.3812C4.0375 11.4687 3.6625 11.6 3.3 11.775C3.7 12.175 4.147 12.5095 4.641 12.7785C5.135 13.0475 5.663 13.238 6.225 13.35ZM7.5 15C6.4625 15 5.4875 14.803 4.575 14.409C3.6625 14.015 2.86875 13.4807 2.19375 12.8062C1.51875 12.1312 0.9845 11.3375 0.591 10.425C0.1975 9.5125 0.0005 8.5375 0 7.5C0 6.4625 0.197 5.4875 0.591 4.575C0.985 3.6625 1.51925 2.86875 2.19375 2.19375C2.86875 1.51875 3.6625 0.9845 4.575 0.591C5.4875 0.1975 6.4625 0.0005 7.5 0C8.5375 0 9.5125 0.197 10.425 0.591C11.3375 0.985 12.1312 1.51925 12.8062 2.19375C13.4812 2.86875 14.0157 3.6625 14.4097 4.575C14.8037 5.4875 15.0005 6.4625 15 7.5C15 8.5375 14.803 9.5125 14.409 10.425C14.015 11.3375 13.4807 12.1312 12.8062 12.8062C12.1312 13.4812 11.3375 14.0157 10.425 14.4097C9.5125 14.8037 8.5375 15.0005 7.5 15Z" fill="white"/>
</svg>
