<svg width="28" height="34" viewBox="0 0 28 34" fill="none" xmlns="http://www.w3.org/2000/svg">
<path d="M14 0.257111C15.8565 0.257111 17.637 1.13568 18.9497 2.69954C20.2625 4.26341 21 6.38446 21 8.5961C21 10.8077 20.2625 12.9288 18.9497 14.4927C17.637 16.0565 15.8565 16.9351 14 16.9351C12.1435 16.9351 10.363 16.0565 9.05025 14.4927C7.7375 12.9288 7 10.8077 7 8.5961C7 6.38446 7.7375 4.26341 9.05025 2.69954C10.363 1.13568 12.1435 0.257111 14 0.257111ZM14 21.1046C21.735 21.1046 28 24.8363 28 29.4436V33.6131H0V29.4436C0 24.8363 6.265 21.1046 14 21.1046Z" fill="white"/>
</svg>
