<svg width="28" height="38" viewBox="0 0 28 38" fill="none" xmlns="http://www.w3.org/2000/svg">
<path d="M14 0.7052C15.8565 0.7052 17.637 1.68711 18.9497 3.43491C20.2625 5.18272 21 7.55325 21 10.025C21 12.4968 20.2625 14.8673 18.9497 16.6151C17.637 18.3629 15.8565 19.3448 14 19.3448C12.1435 19.3448 10.363 18.3629 9.05025 16.6151C7.7375 14.8673 7 12.4968 7 10.025C7 7.55325 7.7375 5.18272 9.05025 3.43491C10.363 1.68711 12.1435 0.7052 14 0.7052ZM14 24.0048C21.735 24.0048 28 28.1754 28 33.3246V37.9845H0V33.3246C0 28.1754 6.265 24.0048 14 24.0048Z" fill="white"/>
</svg>
