<svg width="20" height="21" viewBox="0 0 20 21" fill="none" xmlns="http://www.w3.org/2000/svg">
<path d="M2 20.2481C1.45 20.2481 0.979333 20.006 0.588 19.5218C0.196 19.0367 0 18.4539 0 17.7734V2.92515C0 2.2446 0.196 1.66222 0.588 1.178C0.979333 0.69296 1.45 0.450439 2 0.450439H18C18.55 0.450439 19.021 0.69296 19.413 1.178C19.8043 1.66222 20 2.2446 20 2.92515V17.7734C20 18.4539 19.8043 19.0367 19.413 19.5218C19.021 20.006 18.55 20.2481 18 20.2481H2ZM10 11.5866L18 5.39985V2.92515L10 9.11191L2 2.92515V5.39985L10 11.5866Z" fill="white"/>
</svg>
