<svg width="27" height="33" viewBox="0 0 27 33" fill="none" xmlns="http://www.w3.org/2000/svg">
<path d="M26.5862 29.1932L20.4654 21.9017C21.939 19.5647 22.7345 16.72 22.7318 13.7972C22.7318 6.33122 17.633 0.257111 11.3659 0.257111C5.09879 0.257111 0 6.33122 0 13.7972C0 21.2631 5.09879 27.3372 11.3659 27.3372C13.8195 27.3404 16.2073 26.3927 18.1691 24.6372L24.2898 31.9288C24.5997 32.2588 25.0038 32.4349 25.4192 32.421C25.8346 32.4072 26.2298 32.2044 26.5237 31.8543C26.8175 31.5043 26.9877 31.0335 26.9994 30.5386C27.011 30.0437 26.8631 29.5623 26.5862 29.1932ZM3.24741 13.7972C3.24741 11.8843 3.72355 10.0144 4.61562 8.42398C5.5077 6.83352 6.77563 5.5939 8.2591 4.86189C9.74256 4.12988 11.3749 3.93835 12.9498 4.31153C14.5246 4.6847 15.9712 5.60582 17.1066 6.9584C18.242 8.31098 19.0152 10.0343 19.3284 11.9103C19.6417 13.7864 19.4809 15.731 18.8664 17.4983C18.252 19.2655 17.2114 20.776 15.8763 21.8387C14.5412 22.9014 12.9716 23.4686 11.3659 23.4686C9.21355 23.4655 7.15007 22.4456 5.62812 20.6325C4.10616 18.8194 3.24999 16.3612 3.24741 13.7972Z" fill="white"/>
</svg>
