<svg width="9" height="8" viewBox="0 0 9 8" fill="none" xmlns="http://www.w3.org/2000/svg">
<path d="M8.65 3.65004L5.86 0.86004C5.79045 0.788591 5.70116 0.73952 5.60357 0.719107C5.50597 0.698695 5.4045 0.707869 5.31215 0.745455C5.21979 0.783041 5.14075 0.847329 5.08515 0.930093C5.02954 1.01286 4.99989 1.11033 5 1.21004V3.00004H1C0.45 3.00004 0 3.45004 0 4.00004C0 4.55004 0.45 5.00004 1 5.00004H5V6.79004C5 7.24004 5.54 7.46004 5.85 7.14004L8.64 4.35004C8.84 4.16004 8.84 3.84004 8.65 3.65004Z" fill="white"/>
</svg>
