<svg width="9" height="6" viewBox="0 0 9 6" fill="none" xmlns="http://www.w3.org/2000/svg">
<path d="M8.65 2.49991L5.86 0.14639C5.79045 0.086119 5.70116 0.0447253 5.60357 0.0275059C5.50597 0.0102865 5.4045 0.0180253 5.31215 0.0497312C5.21979 0.0814371 5.14075 0.135668 5.08515 0.205484C5.02954 0.275299 4.99989 0.357524 5 0.441635V1.9516H1C0.45 1.9516 0 2.3312 0 2.79515C0 3.25911 0.45 3.63871 1 3.63871H5V5.14867C5 5.52827 5.54 5.71385 5.85 5.44392L8.64 3.0904C8.84 2.93012 8.84 2.66018 8.65 2.49991Z" fill="white"/>
</svg>
