<svg width="28" height="31" viewBox="0 0 28 31" fill="none" xmlns="http://www.w3.org/2000/svg">
<path d="M14 0.355713C15.8565 0.355713 17.637 1.13769 18.9497 2.52961C20.2625 3.92153 21 5.80937 21 7.77785C21 9.74632 20.2625 11.6342 18.9497 13.0261C17.637 14.418 15.8565 15.2 14 15.2C12.1435 15.2 10.363 14.418 9.05025 13.0261C7.7375 11.6342 7 9.74632 7 7.77785C7 5.80937 7.7375 3.92153 9.05025 2.52961C10.363 1.13769 12.1435 0.355713 14 0.355713ZM14 18.911C21.735 18.911 28 22.2325 28 26.3332V30.0442H0V26.3332C0 22.2325 6.265 18.911 14 18.911Z" fill="white"/>
</svg>
