<svg width="23" height="35" viewBox="0 0 23 35" fill="none" xmlns="http://www.w3.org/2000/svg">
<path d="M20.125 7.37134H17.25C17.25 3.6221 14.6769 0.585388 11.5 0.585388C8.32312 0.585388 5.75 3.6221 5.75 7.37134H2.875C1.29375 7.37134 0 8.89818 0 10.7643V31.1222C0 32.9883 1.29375 34.5151 2.875 34.5151H20.125C21.7062 34.5151 23 32.9883 23 31.1222V10.7643C23 8.89818 21.7062 7.37134 20.125 7.37134ZM11.5 3.97836C13.0813 3.97836 14.375 5.5052 14.375 7.37134H8.625C8.625 5.5052 9.91875 3.97836 11.5 3.97836ZM20.125 31.1222H2.875V10.7643H5.75V14.1573C5.75 15.0904 6.39687 15.8538 7.1875 15.8538C7.97813 15.8538 8.625 15.0904 8.625 14.1573V10.7643H14.375V14.1573C14.375 15.0904 15.0219 15.8538 15.8125 15.8538C16.6031 15.8538 17.25 15.0904 17.25 14.1573V10.7643H20.125V31.1222Z" fill="white"/>
</svg>
