<svg width="20" height="15" viewBox="0 0 20 15" fill="none" xmlns="http://www.w3.org/2000/svg">
<path d="M2 14.4334C1.45 14.4334 0.979333 14.2683 0.588 13.9382C0.196 13.6076 0 13.2102 0 12.7463V2.62363C0 2.15968 0.196 1.76264 0.588 1.43253C0.979333 1.10186 1.45 0.936523 2 0.936523H18C18.55 0.936523 19.021 1.10186 19.413 1.43253C19.8043 1.76264 20 2.15968 20 2.62363V12.7463C20 13.2102 19.8043 13.6076 19.413 13.9382C19.021 14.2683 18.55 14.4334 18 14.4334H2ZM10 8.52852L18 4.31074V2.62363L10 6.84141L2 2.62363V4.31074L10 8.52852Z" fill="white"/>
</svg>
