<svg width="23" height="37" viewBox="0 0 23 37" fill="none" xmlns="http://www.w3.org/2000/svg">
<path d="M20.125 7.35983H17.25C17.25 3.29352 14.6769 0 11.5 0C8.32312 0 5.75 3.29352 5.75 7.35983H2.875C1.29375 7.35983 0 9.01579 0 11.0397V33.1192C0 35.1432 1.29375 36.7992 2.875 36.7992H20.125C21.7062 36.7992 23 35.1432 23 33.1192V11.0397C23 9.01579 21.7062 7.35983 20.125 7.35983ZM11.5 3.67992C13.0813 3.67992 14.375 5.33588 14.375 7.35983H8.625C8.625 5.33588 9.91875 3.67992 11.5 3.67992ZM20.125 33.1192H2.875V11.0397H5.75V14.7197C5.75 15.7316 6.39687 16.5596 7.1875 16.5596C7.97813 16.5596 8.625 15.7316 8.625 14.7197V11.0397H14.375V14.7197C14.375 15.7316 15.0219 16.5596 15.8125 16.5596C16.6031 16.5596 17.25 15.7316 17.25 14.7197V11.0397H20.125V33.1192Z" fill="white"/>
</svg>
