<svg width="9" height="9" viewBox="0 0 9 9" fill="none" xmlns="http://www.w3.org/2000/svg">
<path d="M8.65 3.95516L5.86 0.502942C5.79045 0.414535 5.70116 0.353818 5.60357 0.32856C5.50597 0.303302 5.4045 0.314653 5.31215 0.36116C5.21979 0.407668 5.14075 0.487215 5.08515 0.589623C5.02954 0.692031 4.99989 0.81264 5 0.936016V3.15088H1C0.45 3.15088 0 3.70769 0 4.38823C0 5.06877 0.45 5.62558 1 5.62558H5V7.84044C5 8.39725 5.54 8.66947 5.85 8.27352L8.64 4.8213C8.84 4.58621 8.84 4.19025 8.65 3.95516Z" fill="white"/>
</svg>
